<mxfile host="app.diagrams.net" agent="Mozilla/5.0 (X11; Linux x86_64) AppleWebKit/537.36 (KHTML, like Gecko) Chrome/132.0.0.0 Safari/537.36" version="26.0.10">
  <diagram name="system-params" id="iyGZp5jmrZklqUcgRUE-">
    <mxGraphModel dx="850" dy="759" grid="1" gridSize="10" guides="1" tooltips="1" connect="1" arrows="1" fold="1" page="1" pageScale="1" pageWidth="1169" pageHeight="1654" background="none" math="0" shadow="1">
      <root>
        <mxCell id="0" />
        <mxCell id="1" parent="0" />
        <mxCell id="yixODS26HITTkWKWrakN-14" value="" style="rounded=0;whiteSpace=wrap;html=1;strokeWidth=2;fillColor=#d5e8d4;strokeColor=#82b366;" parent="1" vertex="1">
          <mxGeometry x="265" y="240" width="630" height="274" as="geometry" />
        </mxCell>
        <mxCell id="gKhw4Je1qJ6hsbhi2J0A-1" value="" style="rounded=0;whiteSpace=wrap;html=1;strokeWidth=2;fillColor=#fff2cc;strokeColor=#d6b656;" parent="1" vertex="1">
          <mxGeometry x="265" y="834" width="630" height="100" as="geometry" />
        </mxCell>
        <mxCell id="gKhw4Je1qJ6hsbhi2J0A-2" value="&lt;b style=&quot;font-size: 12px;&quot;&gt;&lt;font style=&quot;font-size: 12px;&quot;&gt;Domain&lt;br&gt;&lt;/font&gt;&lt;/b&gt;" style="text;html=1;strokeColor=none;fillColor=none;align=right;verticalAlign=middle;whiteSpace=wrap;rounded=0;fontSize=12;" parent="1" vertex="1">
          <mxGeometry x="795" y="814" width="100" height="20" as="geometry" />
        </mxCell>
        <mxCell id="lqB0JCX7hkBcc-mN7qmX-8" style="edgeStyle=orthogonalEdgeStyle;rounded=0;orthogonalLoop=1;jettySize=auto;html=1;entryX=1;entryY=0.5;entryDx=0;entryDy=0;" parent="1" source="gKhw4Je1qJ6hsbhi2J0A-3" target="lqB0JCX7hkBcc-mN7qmX-6" edge="1">
          <mxGeometry relative="1" as="geometry" />
        </mxCell>
        <mxCell id="lqB0JCX7hkBcc-mN7qmX-10" style="edgeStyle=orthogonalEdgeStyle;rounded=0;orthogonalLoop=1;jettySize=auto;html=1;" parent="1" source="gKhw4Je1qJ6hsbhi2J0A-3" target="lqB0JCX7hkBcc-mN7qmX-7" edge="1">
          <mxGeometry relative="1" as="geometry" />
        </mxCell>
        <mxCell id="gKhw4Je1qJ6hsbhi2J0A-3" value="SystemParams" style="rounded=1;whiteSpace=wrap;html=1;" parent="1" vertex="1">
          <mxGeometry x="510" y="859" width="140" height="50" as="geometry" />
        </mxCell>
        <mxCell id="LERfh-It_sYKTg9gHOGU-4" value="" style="rounded=0;whiteSpace=wrap;html=1;strokeWidth=2;fillColor=#f8ceccff;strokeColor=#b85450ff;" parent="1" vertex="1">
          <mxGeometry x="265" y="564" width="630" height="220" as="geometry" />
        </mxCell>
        <mxCell id="LERfh-It_sYKTg9gHOGU-5" value="&lt;b style=&quot;font-size: 12px;&quot;&gt;&lt;font style=&quot;font-size: 12px;&quot;&gt;Application&lt;/font&gt;&lt;/b&gt;" style="text;html=1;strokeColor=none;fillColor=none;align=right;verticalAlign=middle;whiteSpace=wrap;rounded=0;fontSize=12;" parent="1" vertex="1">
          <mxGeometry x="795" y="544" width="100" height="20" as="geometry" />
        </mxCell>
        <mxCell id="LERfh-It_sYKTg9gHOGU-7" style="edgeStyle=orthogonalEdgeStyle;rounded=0;orthogonalLoop=1;jettySize=auto;html=1;entryX=0.5;entryY=0;entryDx=0;entryDy=0;" parent="1" source="LERfh-It_sYKTg9gHOGU-6" target="gKhw4Je1qJ6hsbhi2J0A-3" edge="1">
          <mxGeometry relative="1" as="geometry" />
        </mxCell>
        <mxCell id="lqB0JCX7hkBcc-mN7qmX-1" style="edgeStyle=orthogonalEdgeStyle;rounded=0;orthogonalLoop=1;jettySize=auto;html=1;entryX=0.5;entryY=1;entryDx=0;entryDy=0;" parent="1" source="LERfh-It_sYKTg9gHOGU-6" target="LERfh-It_sYKTg9gHOGU-11" edge="1">
          <mxGeometry relative="1" as="geometry" />
        </mxCell>
        <mxCell id="lqB0JCX7hkBcc-mN7qmX-4" style="edgeStyle=orthogonalEdgeStyle;rounded=0;orthogonalLoop=1;jettySize=auto;html=1;entryX=0.5;entryY=1;entryDx=0;entryDy=0;exitX=1;exitY=0.5;exitDx=0;exitDy=0;exitPerimeter=0;" parent="1" source="LERfh-It_sYKTg9gHOGU-6" target="lqB0JCX7hkBcc-mN7qmX-2" edge="1">
          <mxGeometry relative="1" as="geometry" />
        </mxCell>
        <mxCell id="LERfh-It_sYKTg9gHOGU-6" value="SystemParamsService" style="rounded=0;whiteSpace=wrap;html=1;glass=0;shadow=0;points=[[0,0,0,0,0],[0,0.25,0,0,0],[0,0.5,0,0,0],[0,0.75,0,0,0],[0,1,0,0,0],[0.13,0,0,0,0],[0.25,0,0,0,0],[0.25,1,0,0,0],[0.38,0,0,0,0],[0.5,0,0,0,0],[0.5,1,0,0,0],[0.62,0,0,0,0],[0.75,0,0,0,0],[0.75,1,0,0,0],[0.88,0,0,0,0],[1,0,0,0,0],[1,0.25,0,0,0],[1,0.5,0,0,0],[1,0.75,0,0,0],[1,1,0,0,0]];" parent="1" vertex="1">
          <mxGeometry x="510" y="694" width="140" height="50" as="geometry" />
        </mxCell>
        <mxCell id="lqB0JCX7hkBcc-mN7qmX-15" style="edgeStyle=orthogonalEdgeStyle;rounded=0;orthogonalLoop=1;jettySize=auto;html=1;exitX=0.25;exitY=1;exitDx=0;exitDy=0;dashed=1;" parent="1" source="LERfh-It_sYKTg9gHOGU-11" target="lqB0JCX7hkBcc-mN7qmX-6" edge="1">
          <mxGeometry relative="1" as="geometry" />
        </mxCell>
        <mxCell id="LERfh-It_sYKTg9gHOGU-11" value="GlobalParamsManager" style="rounded=1;whiteSpace=wrap;html=1;dashed=1;flipH=1;rotation=0;" parent="1" vertex="1">
          <mxGeometry x="347.5" y="594" width="140" height="50" as="geometry" />
        </mxCell>
        <mxCell id="LERfh-It_sYKTg9gHOGU-35" value="PostgreSQL" style="rounded=0;whiteSpace=wrap;html=1;glass=0;shadow=0;fillColor=#dae8fc;strokeColor=#6c8ebf;" parent="1" vertex="1">
          <mxGeometry x="357.5" y="150" width="120" height="50" as="geometry" />
        </mxCell>
        <mxCell id="LERfh-It_sYKTg9gHOGU-66" value="System Global and User Params" style="text;html=1;strokeColor=none;fillColor=none;align=center;verticalAlign=middle;whiteSpace=wrap;rounded=0;fontSize=24;fontStyle=1" parent="1" vertex="1">
          <mxGeometry x="360" y="40" width="450" height="40" as="geometry" />
        </mxCell>
        <mxCell id="LERfh-It_sYKTg9gHOGU-67" value="Dependency Diagram" style="text;html=1;strokeColor=none;fillColor=none;align=center;verticalAlign=middle;whiteSpace=wrap;rounded=0;fontSize=18;fontStyle=1" parent="1" vertex="1">
          <mxGeometry x="360" y="80" width="440" height="40" as="geometry" />
        </mxCell>
        <mxCell id="lqB0JCX7hkBcc-mN7qmX-14" style="edgeStyle=orthogonalEdgeStyle;rounded=0;orthogonalLoop=1;jettySize=auto;html=1;" parent="1" source="u-mnAU9tdNBNZDLYJsx6-3" target="lqB0JCX7hkBcc-mN7qmX-2" edge="1">
          <mxGeometry relative="1" as="geometry" />
        </mxCell>
        <mxCell id="lqB0JCX7hkBcc-mN7qmX-21" style="edgeStyle=orthogonalEdgeStyle;rounded=0;orthogonalLoop=1;jettySize=auto;html=1;entryX=0.75;entryY=0;entryDx=0;entryDy=0;exitX=0;exitY=0.5;exitDx=0;exitDy=0;exitPerimeter=0;jumpStyle=arc;" parent="1" source="u-mnAU9tdNBNZDLYJsx6-3" target="LERfh-It_sYKTg9gHOGU-11" edge="1">
          <mxGeometry relative="1" as="geometry">
            <Array as="points">
              <mxPoint x="620" y="459" />
              <mxPoint x="620" y="544" />
              <mxPoint x="453" y="544" />
            </Array>
          </mxGeometry>
        </mxCell>
        <mxCell id="u-mnAU9tdNBNZDLYJsx6-3" value="EnvParamsRepository" style="rounded=0;whiteSpace=wrap;html=1;glass=0;shadow=0;points=[[0,0,0,0,0],[0,0.25,0,0,0],[0,0.5,0,0,0],[0,0.75,0,0,0],[0,1,0,0,0],[0.13,0,0,0,0],[0.25,0,0,0,0],[0.25,1,0,0,0],[0.38,0,0,0,0],[0.5,0,0,0,0],[0.5,1,0,0,0],[0.62,0,0,0,0],[0.75,0,0,0,0],[0.75,1,0,0,0],[0.88,0,0,0,0],[1,0,0,0,0],[1,0.25,0,0,0],[1,0.5,0,0,0],[1,0.75,0,0,0],[1,1,0,0,0]];rotation=0;" parent="1" vertex="1">
          <mxGeometry x="667.5" y="434" width="150" height="50" as="geometry" />
        </mxCell>
        <mxCell id="lqB0JCX7hkBcc-mN7qmX-13" style="edgeStyle=orthogonalEdgeStyle;rounded=0;orthogonalLoop=1;jettySize=auto;html=1;entryX=0.5;entryY=0;entryDx=0;entryDy=0;" parent="1" source="u-mnAU9tdNBNZDLYJsx6-5" target="LERfh-It_sYKTg9gHOGU-11" edge="1">
          <mxGeometry relative="1" as="geometry" />
        </mxCell>
        <mxCell id="lqB0JCX7hkBcc-mN7qmX-20" style="edgeStyle=orthogonalEdgeStyle;rounded=0;orthogonalLoop=1;jettySize=auto;html=1;entryX=0.25;entryY=0;entryDx=0;entryDy=0;exitX=1;exitY=0.5;exitDx=0;exitDy=0;exitPerimeter=0;jumpStyle=arc;" parent="1" source="u-mnAU9tdNBNZDLYJsx6-5" target="lqB0JCX7hkBcc-mN7qmX-2" edge="1">
          <mxGeometry relative="1" as="geometry">
            <Array as="points">
              <mxPoint x="540" y="459" />
              <mxPoint x="540" y="534" />
              <mxPoint x="707" y="534" />
            </Array>
          </mxGeometry>
        </mxCell>
        <mxCell id="u-mnAU9tdNBNZDLYJsx6-5" value="DbParamsRepository" style="rounded=0;whiteSpace=wrap;html=1;glass=0;shadow=0;points=[[0,0,0,0,0],[0,0.25,0,0,0],[0,0.5,0,0,0],[0,0.75,0,0,0],[0,1,0,0,0],[0.13,0,0,0,0],[0.25,0,0,0,0],[0.25,1,0,0,0],[0.38,0,0,0,0],[0.5,0,0,0,0],[0.5,1,0,0,0],[0.62,0,0,0,0],[0.75,0,0,0,0],[0.75,1,0,0,0],[0.88,0,0,0,0],[1,0,0,0,0],[1,0.25,0,0,0],[1,0.5,0,0,0],[1,0.75,0,0,0],[1,1,0,0,0]];rotation=0;" parent="1" vertex="1">
          <mxGeometry x="342.5" y="434" width="150" height="50" as="geometry" />
        </mxCell>
        <mxCell id="yixODS26HITTkWKWrakN-15" value="Infra" style="text;html=1;strokeColor=none;fillColor=none;align=right;verticalAlign=middle;whiteSpace=wrap;rounded=0;fontSize=12;fontStyle=1" parent="1" vertex="1">
          <mxGeometry x="760" y="220" width="135" height="20" as="geometry" />
        </mxCell>
        <mxCell id="Q0tA1o-G2Nr5QR-HIBfc-7" value="Env" style="rounded=0;whiteSpace=wrap;html=1;glass=0;shadow=0;fillColor=#dae8fc;strokeColor=#6c8ebf;" parent="1" vertex="1">
          <mxGeometry x="682.5" y="150" width="120" height="50" as="geometry" />
        </mxCell>
        <mxCell id="lqB0JCX7hkBcc-mN7qmX-16" style="edgeStyle=orthogonalEdgeStyle;rounded=0;orthogonalLoop=1;jettySize=auto;html=1;entryX=0.5;entryY=0;entryDx=0;entryDy=0;exitX=0.75;exitY=1;exitDx=0;exitDy=0;dashed=1;" parent="1" source="lqB0JCX7hkBcc-mN7qmX-2" target="lqB0JCX7hkBcc-mN7qmX-7" edge="1">
          <mxGeometry relative="1" as="geometry" />
        </mxCell>
        <mxCell id="lqB0JCX7hkBcc-mN7qmX-2" value="UserParamsManager" style="rounded=1;whiteSpace=wrap;html=1;dashed=1;flipH=1;rotation=0;" parent="1" vertex="1">
          <mxGeometry x="672.5" y="594" width="140" height="50" as="geometry" />
        </mxCell>
        <mxCell id="lqB0JCX7hkBcc-mN7qmX-6" value="GlobalParams" style="rounded=1;whiteSpace=wrap;html=1;" parent="1" vertex="1">
          <mxGeometry x="312" y="859" width="140" height="50" as="geometry" />
        </mxCell>
        <mxCell id="lqB0JCX7hkBcc-mN7qmX-7" value="UserParams" style="rounded=1;whiteSpace=wrap;html=1;" parent="1" vertex="1">
          <mxGeometry x="708" y="859" width="140" height="50" as="geometry" />
        </mxCell>
        <mxCell id="lqB0JCX7hkBcc-mN7qmX-27" value="DatabaseClient" style="rounded=1;whiteSpace=wrap;html=1;glass=0;shadow=0;points=[[0,0,0,0,0],[0,0.25,0,0,0],[0,0.5,0,0,0],[0,0.75,0,0,0],[0,1,0,0,0],[0.13,0,0,0,0],[0.25,0,0,0,0],[0.25,1,0,0,0],[0.38,0,0,0,0],[0.5,0,0,0,0],[0.5,1,0,0,0],[0.62,0,0,0,0],[0.75,0,0,0,0],[0.75,1,0,0,0],[0.88,0,0,0,0],[1,0,0,0,0],[1,0.25,0,0,0],[1,0.5,0,0,0],[1,0.75,0,0,0],[1,1,0,0,0]];rotation=0;dashed=1;" parent="1" vertex="1">
          <mxGeometry x="342.5" y="350" width="150" height="50" as="geometry" />
        </mxCell>
        <mxCell id="lqB0JCX7hkBcc-mN7qmX-29" style="edgeStyle=orthogonalEdgeStyle;rounded=0;orthogonalLoop=1;jettySize=auto;html=1;" parent="1" source="lqB0JCX7hkBcc-mN7qmX-28" target="LERfh-It_sYKTg9gHOGU-35" edge="1">
          <mxGeometry relative="1" as="geometry" />
        </mxCell>
        <mxCell id="lqB0JCX7hkBcc-mN7qmX-31" style="edgeStyle=orthogonalEdgeStyle;rounded=0;orthogonalLoop=1;jettySize=auto;html=1;" parent="1" source="lqB0JCX7hkBcc-mN7qmX-28" target="lqB0JCX7hkBcc-mN7qmX-27" edge="1">
          <mxGeometry relative="1" as="geometry" />
        </mxCell>
        <mxCell id="lqB0JCX7hkBcc-mN7qmX-28" value="PgClient" style="rounded=0;whiteSpace=wrap;html=1;glass=0;shadow=0;points=[[0,0,0,0,0],[0,0.25,0,0,0],[0,0.5,0,0,0],[0,0.75,0,0,0],[0,1,0,0,0],[0.13,0,0,0,0],[0.25,0,0,0,0],[0.25,1,0,0,0],[0.38,0,0,0,0],[0.5,0,0,0,0],[0.5,1,0,0,0],[0.62,0,0,0,0],[0.75,0,0,0,0],[0.75,1,0,0,0],[0.88,0,0,0,0],[1,0,0,0,0],[1,0.25,0,0,0],[1,0.5,0,0,0],[1,0.75,0,0,0],[1,1,0,0,0]];rotation=0;" parent="1" vertex="1">
          <mxGeometry x="342.5" y="270" width="150" height="50" as="geometry" />
        </mxCell>
        <mxCell id="lqB0JCX7hkBcc-mN7qmX-32" style="edgeStyle=orthogonalEdgeStyle;rounded=0;orthogonalLoop=1;jettySize=auto;html=1;entryX=0.5;entryY=1;entryDx=0;entryDy=0;entryPerimeter=0;" parent="1" source="u-mnAU9tdNBNZDLYJsx6-5" target="lqB0JCX7hkBcc-mN7qmX-27" edge="1">
          <mxGeometry relative="1" as="geometry" />
        </mxCell>
        <mxCell id="lqB0JCX7hkBcc-mN7qmX-36" style="edgeStyle=orthogonalEdgeStyle;rounded=0;orthogonalLoop=1;jettySize=auto;html=1;" parent="1" source="lqB0JCX7hkBcc-mN7qmX-33" target="lqB0JCX7hkBcc-mN7qmX-34" edge="1">
          <mxGeometry relative="1" as="geometry" />
        </mxCell>
        <mxCell id="lqB0JCX7hkBcc-mN7qmX-37" style="edgeStyle=orthogonalEdgeStyle;rounded=0;orthogonalLoop=1;jettySize=auto;html=1;" parent="1" source="lqB0JCX7hkBcc-mN7qmX-33" target="Q0tA1o-G2Nr5QR-HIBfc-7" edge="1">
          <mxGeometry relative="1" as="geometry" />
        </mxCell>
        <mxCell id="lqB0JCX7hkBcc-mN7qmX-33" value="EnvClient" style="rounded=0;whiteSpace=wrap;html=1;glass=0;shadow=0;points=[[0,0,0,0,0],[0,0.25,0,0,0],[0,0.5,0,0,0],[0,0.75,0,0,0],[0,1,0,0,0],[0.13,0,0,0,0],[0.25,0,0,0,0],[0.25,1,0,0,0],[0.38,0,0,0,0],[0.5,0,0,0,0],[0.5,1,0,0,0],[0.62,0,0,0,0],[0.75,0,0,0,0],[0.75,1,0,0,0],[0.88,0,0,0,0],[1,0,0,0,0],[1,0.25,0,0,0],[1,0.5,0,0,0],[1,0.75,0,0,0],[1,1,0,0,0]];rotation=0;" parent="1" vertex="1">
          <mxGeometry x="667.5" y="270" width="150" height="50" as="geometry" />
        </mxCell>
        <mxCell id="lqB0JCX7hkBcc-mN7qmX-34" value="LocalClient" style="rounded=1;whiteSpace=wrap;html=1;glass=0;shadow=0;points=[[0,0,0,0,0],[0,0.25,0,0,0],[0,0.5,0,0,0],[0,0.75,0,0,0],[0,1,0,0,0],[0.13,0,0,0,0],[0.25,0,0,0,0],[0.25,1,0,0,0],[0.38,0,0,0,0],[0.5,0,0,0,0],[0.5,1,0,0,0],[0.62,0,0,0,0],[0.75,0,0,0,0],[0.75,1,0,0,0],[0.88,0,0,0,0],[1,0,0,0,0],[1,0.25,0,0,0],[1,0.5,0,0,0],[1,0.75,0,0,0],[1,1,0,0,0]];rotation=0;dashed=1;" parent="1" vertex="1">
          <mxGeometry x="667.5" y="350" width="150" height="50" as="geometry" />
        </mxCell>
        <mxCell id="lqB0JCX7hkBcc-mN7qmX-35" style="edgeStyle=orthogonalEdgeStyle;rounded=0;orthogonalLoop=1;jettySize=auto;html=1;entryX=0.5;entryY=1;entryDx=0;entryDy=0;entryPerimeter=0;" parent="1" source="u-mnAU9tdNBNZDLYJsx6-3" target="lqB0JCX7hkBcc-mN7qmX-34" edge="1">
          <mxGeometry relative="1" as="geometry" />
        </mxCell>
      </root>
    </mxGraphModel>
  </diagram>
</mxfile>
